<?xml version="1.0" encoding="UTF-8"?>
<svg xmlns="http://www.w3.org/2000/svg" version="1.1" viewBox="0 0 1920 1080">
  <defs>
    <style>
      .cls-1 {
        fill: #010101;
      }

      .cls-2 {
        fill: #939196;
      }

      .cls-3 {
        fill: #020202;
      }

      .cls-4 {
        fill: #090a0f;
      }

      .cls-5 {
        fill: #08090e;
      }

      .cls-6 {
        fill: #363439;
      }

      .cls-7 {
        fill: #531986;
      }

      .cls-8 {
        fill: #d8d6db;
      }

      .cls-9 {
        fill: #37353a;
      }

      .cls-10 {
        fill: #424448;
      }

      .cls-11 {
        fill: #d3d2d7;
      }

      .cls-12 {
        fill: #dad8dd;
      }

      .cls-13 {
        fill: #5a595e;
      }

      .cls-14 {
        fill: #d1d0d5;
      }

      .cls-15 {
        fill: #d9d7dc;
      }

      .cls-16 {
        fill: #d3d1d6;
      }

      .cls-17 {
        fill: #c3c1c6;
      }

      .cls-18 {
        fill: #c4c3c7;
      }

      .cls-19 {
        fill: #918f94;
      }
    </style>
  </defs>
  <!-- Generator: Adobe Illustrator 28.7.1, SVG Export Plug-In . SVG Version: 1.2.0 Build 142)  -->
  <g>
    <g id="Capa_1">
      <g>
        <path class="cls-7" d="M869,448.24c-2.16-1.26-2.47-3.54-3.31-5.38-5.49-11.92-13.23-21.98-22.25-31.61-12.84-13.71-28.82-21.42-45.91-27.03-10.98-3.6-22.88-5.49-34.19-.81-11.54,4.78-21.28,12.11-26.73,23.87-4.6,9.91-1.31,18.64,5.07,26.37,8.62,10.46,19.41,18.78,29.9,27.13,13.76,10.96,27.22,22.28,40.74,33.52,9.87,8.21,18.88,17.47,28.17,26.36,8.85,8.46,17.7,16.89,27.63,24.11,4.09,2.97,4.42,4.68,1.02,8.6-5.07,5.84-10.57,11.31-15.83,16.99-11.96,12.93-23.83,25.94-35.86,38.8-4.26,4.56-8.94,8.72-13.28,13.21-10.64,10.99-18.89,23.79-27.36,36.42-1.46,2.17-3.02,4.28-4.53,6.41-.48.68-.64,1.88-1.69,1.76-.91-.11-1.36-1.13-1.58-1.95-2.04-7.77-6.66-14.19-10.89-20.78-7.56-11.76-15.97-22.94-24.74-33.79-4.45-5.5-10.16-9.96-15.13-15.05-11.11-11.4-21.12-23.54-27.14-38.6-3.7-9.27-5.45-18.91-6.84-28.68-.2-1.4-.2-2.95.93-4.16,1.53.48,1.67,1.86,2.09,2.97,7.03,18.31,19.8,32.29,34.71,44.24,8.85,7.1,19.54,11.49,30.27,15.34,10.59,3.8,21.49,5.3,32.72,3.83,5.38-.7,9.95-3.28,14.3-6.21,5.8-3.9,11.13-8.18,15.18-14.19,8.24-12.23,5.45-22.53-2.78-32.1-8.9-10.35-19.85-18.53-30.43-27.08-11.65-9.42-23.09-19.09-34.63-28.65-12.7-10.53-24.12-22.43-36.14-33.68-7.66-7.17-15.34-14.32-23.81-20.54-4.89-3.59-5.3-5.28-1.2-9.88,7.57-8.47,15.36-16.75,23.09-25.07,9.01-9.7,18.13-19.3,27.08-29.06,6.92-7.55,14.79-14.14,21.27-22.14,8.96-11.07,16.37-23.2,24.62-34.75.55-.77.77-2.08,2-1.89.94.14,1.2,1.24,1.47,2.04,5.18,15.3,15.79,27.26,24.65,40.32,8.21,12.11,18.96,21.8,29.04,32.18,13.95,14.35,24.53,30.81,28.93,50.67,1.02,4.62,1.53,9.35,2.14,14.05.17,1.28.32,2.72-.78,3.92Z"/>
        <path class="cls-5" d="M1037.28,557.64c-3.05,2-6.1,4.01-9.16,5.99-18.54,12.02-37.28,23.7-57.35,33.07-2.8,1.31-4.47,3.42-5.25,6.4-1.04,4-2.01,7.98-1.99,12.16.08,14.08-.11,28.07,2.83,42.09,6.52,31.13,10.77,62.65,14.09,94.28,1.38,13.17.89,26.29-5.17,38.46-4.79,9.63-12.05,16.87-22.61,20.01-11.33,3.37-20.83-.82-29.42-7.89-5.83-4.79-9.35-11.18-12.59-17.9-6.54-13.59-8.63-28.04-8.95-42.83-.11-5.32.75-10.66,1.64-15.98,3.15-18.82,5.65-37.65,4.39-56.91-.73-11.09-1.77-22.13-2.95-33.17-.45-4.19-.73-4.36-4.55-2.92-21.31,8.03-43.19,13.09-66.12,12.79-12.03-.16-23.87-1.8-35.67-4.01-2.86-.54-3.15-1.33-1.19-3.44,4.33-4.67,8.56-9.43,12.78-14.2,1.58-1.79,3.47-1.99,5.73-1.86,20.15,1.19,40.19.18,60.07-3.43,8.81-1.6,16.68-5.89,24.99-8.95,1.06-.39,1.85-1.21,2.23-2.39,5.4-16.92,16.55-26.74,34.42-29.57,14.35-2.27,28.64-4.26,43.19-3.94,1.1.02,2.29-.09,3.29-.49,11.11-4.47,22.53-8.16,33.35-13.36,6.22-2.99,13-2.32,19.57-3.03.14.33.27.65.41.98Z"/>
        <path class="cls-5" d="M1045.71,556.59c-4.4-8.18-9.67-15.05-9.33-25.04.7-20.09.08-40.23,0-60.35,0-1.6.12-3.17-1.1-4.59-1.73-2-3.18-3.13-5.86-1.14-2.58,1.92-5.54,3.41-8.49,4.75-2.67,1.21-3.52,3.05-3.57,5.86-.3,17.99-1.34,36-.87,53.97.27,10.37-4.61,17.75-10.08,25.35-1.08,1.5-1.73,1.27-2.66-.27-2.5-4.18-5.14-8.27-7.8-12.35-.97-1.49-.89-3.1-.77-4.7,1.55-19.96,1.16-39.95.89-59.93-.04-3.12-.42-6.24-.32-9.36.08-2.44-1.4-3.63-3.06-4.74-1.78-1.19-3.04.23-4.33,1.16-11.37,8.23-11.47,8.23-11.75,22.37-.33,16.36-.84,32.73-.23,49.1.1,2.74-.47,5.02-2.27,7.24-2.99,3.67-5.74,7.55-8.38,11.48-1.67,2.49-2.64,1.96-3.89-.26-2.75-4.89-5.59-9.73-8.43-14.56-.61-1.04-.61-2.16-.6-3.27.28-22.36.56-44.71.9-67.07.01-.96.31-2,.76-2.84,3.2-5.94,6.45-11.84,9.76-17.72.53-.94,1.05-2.28,2.24-2.35,1.64-.09,1.6,1.71,2.12,2.71,1.32,2.55,2.54,5.17,3.53,7.85.96,2.6,2.02,2.53,4.02.93,5.55-4.44,11.32-8.61,16.86-13.06,2.5-2.01,4.46-1.9,6.91.1,4.73,3.86,9.77,7.35,14.5,11.23,1.99,1.63,3.33,1.46,5.17-.07,4.79-3.99,9.75-7.77,14.53-11.77,1.67-1.4,2.75-1.26,4.53-.04,5.57,3.83,10.59,8.33,15.94,12.42,2.02,1.54,2.45,3.66,2.43,5.98-.21,16.99-.43,33.99-.64,50.98-.07,6.25-.35,12.5-.08,18.73.21,4.85-.97,9.01-3.66,13.02-2.2,3.29-4.06,6.8-6.97,10.24Z"/>
        <path class="cls-5" d="M1198.91,557.69c-3.96-5.26-7.64-10.11-11.27-15-.88-1.18-.63-2.64-.62-4,.08-14.24.17-28.48.22-42.72,0-1.05.65-2.47-.59-3.06-1.21-.57-1.96.75-2.81,1.4-5.25,4.01-10.45,8.09-15.75,12.04-1.7,1.27-2.21,2.77-2.22,4.81-.02,7.87-.27,15.74-.24,23.61.01,3.49-.73,6.55-2.77,9.46-2.36,3.36-4.35,6.99-6.46,10.53-1.26,2.12-2.4,2.7-4.04.24-3.03-4.57-6.16-9.09-9.38-13.52-1.08-1.48-1.03-3.02-1.02-4.62.05-19.61.29-39.23.07-58.84-.07-6.17.94-11.76,3.83-17.18,2.17-4.07,3.86-8.39,5.79-12.59.4-.88.69-2.06,1.93-1.99,1.14.06,1.57,1.09,1.97,2.02,2.13,4.93,4.37,9.81,6.33,14.8,1.1,2.81,2.17,2.79,4.16.81,5.4-5.37,10.92-10.62,16.39-15.91,3.88-3.75,3.88-3.69,7.89-.39,4.53,3.72,9.11,7.38,13.78,10.93,2.1,1.6,2.49,3.57,2.89,6.07,1.15,7.15-2.06,11.51-7.6,15.48-7.04,5.05-5.62,3.94-.47,8.73,2.47,2.3,4.85,4.73,7.57,6.7,3.32,2.41,4.11,5.38,3.91,9.35-.52,10.35-.68,20.72-.79,31.08-.04,3.51-.86,6.56-2.85,9.46-2.66,3.88-5.07,7.93-7.84,12.31Z"/>
        <path class="cls-5" d="M1221.04,502.81c-.7-10.95-.57-20.44-.59-29.94-.02-7.85,4.37-14.19,7.19-21.06.38-.92.91-1.78,1.46-2.61.87-1.32.63-3.93,2.22-4,2.07-.09,2.4,2.56,3.19,4.11,2.76,5.46,5.25,11.05,7.86,16.57.89,1.87,1,3.85,1.02,5.85.19,18.11.4,36.22-.02,54.33-.06,2.62,4.84,9.91,7.23,10.59.42.12,1.17.08,1.37-.18,2.46-3.25,6.41-5.37,6.29-10.46-.41-16.6-.43-33.22-.71-49.82-.05-3.19.49-6.12,1.76-9.06,2.69-6.18,5.12-12.47,7.67-18.71.32-.78.42-1.91,1.44-2.02,1.25-.13,1.5,1.09,1.94,1.94,3.4,6.53,6.74,13.09,10.2,19.59.87,1.63,1.09,3.28,1.07,5.05-.26,21.22-.58,42.45-.17,63.67.11,5.64-3.56,9.74-5.87,14.34-2.91,5.8-2.77,7.66-7.02.29-.87-1.51-1.84-2.97-2.72-4.47-3.11-5.26-3.08-5.24-7.55-.82-3.19,3.16-6.45,6.26-9.71,9.35-1.52,1.44-2.91,1.74-4.9.29-6.45-4.7-13.04-9.19-19.68-13.62-1.69-1.13-2.12-2.45-2.27-4.33-.96-12.1-.28-24.22-.69-34.85Z"/>
        <path class="cls-5" d="M1067.48,504.06c0-10.24.07-20.49-.05-30.73-.03-2.34.76-3.94,2.39-5.55,7.92-7.81,16.35-15.04,24.51-22.58,1.87-1.73,3.26-1.96,5.45-.25,9.83,7.67,19.59,15.46,29.86,22.49,3.81,2.61,4.25,5.17,4.05,9.15-.82,16.09-1.58,32.19-1.85,48.29-.15,8.69-1.66,16.81-6.18,24.28-1.15,1.9-1.44,5.44-3.29,5.47-2.17.04-2.62-3.49-4.02-5.32-5.16-6.75-6.84-14.3-6.29-22.77.55-8.46.17-16.98.16-25.47,0-.93.53-2.22-.64-2.66-1.02-.38-1.79.63-2.52,1.28-6.08,5.37-12.13,10.77-18.24,16.11-1.33,1.17-2.05,2.47-1.88,4.24.02.25-.04.51,0,.75,2.24,12.45-2.89,22.55-10.09,32.04-2.26,2.99-2.69,3.07-4.31-.36-2.07-4.41-3.96-8.9-6.05-13.29-.74-1.55-.79-3.11-.78-4.74,0-10.12,0-20.24,0-30.35-.08,0-.15,0-.23,0Z"/>
        <path class="cls-5" d="M878.89,506.62c0-10.25.06-20.5-.05-30.74-.02-2.33.67-3.92,2.44-5.49,8.02-7.15,15.95-14.39,23.77-21.75,2.43-2.29,4.15-2.51,6.99-.36,10.53,7.97,20.74,16.39,31.73,23.75,1.22.81,1.45,1.88,1.4,3.22-.84,21.22-1.31,42.47-2.69,63.65-.41,6.25-4.74,11.71-7.61,17.37-.74,1.46-2.14.83-2.9-.53-4.18-7.41-9.38-14.15-8.46-23.73.91-9.41.21-18.97.18-28.47,0-.93.54-2.22-.66-2.66-.9-.34-1.47.73-2.12,1.3-6.19,5.45-12.33,10.94-18.59,16.3-1.38,1.19-2.01,2.46-1.96,4.19,0,.37-.08.76,0,1.12,2.38,12.47-3,22.46-10.12,31.93-2.08,2.77-2.65,2.81-4.15-.36-2.14-4.52-4.17-9.08-6.31-13.6-.61-1.3-.68-2.63-.68-4.01.01-10.37,0-20.74,0-31.12-.07,0-.15,0-.22,0Z"/>
        <path class="cls-5" d="M550.44,491.91c5.47-9.59,12.72-17.82,20.03-25.98,24.5-27.35,52.14-51.16,81.81-72.71,17.76-12.9,35.6-25.69,54.43-36.99,13.32-7.99,27.75-13.62,42.38-18.74,1.05-.37,2.15-.56,3.43-.88.06,1.22-.61,1.86-1.27,2.52-11.76,11.9-22.98,24.3-33.91,36.97-.99,1.15-2.13,2.09-3.47,2.81-23.41,12.54-47.14,24.53-69.48,38.98-8.98,5.39-17.07,12.03-25.49,18.22-12.23,9.01-23.87,18.73-35.04,29.02-4.95,4.56-9,10.02-13.94,14.61-8.68,8.08-16.45,16.88-22.89,26.93-7.65,11.95-14.94,24.1-21.9,36.46-.33.58-.54,1.73-1.43,1.35-1.02-.43-.56-1.47-.28-2.3l-.02.03c7.87-17.38,16.64-34.28,27.03-50.31Z"/>
        <path class="cls-5" d="M984.09,440.72c-.7,1.25-1.39,1.13-1.97,1.09-9.1-.52-18.19-1.06-27.29-1.6-1.93-.12-3.57-1.03-5.24-1.89-16.42-8.5-32.09-18.27-47.6-28.27-18.06-11.65-36.9-21.96-55.71-32.24-9.95-5.44-17.26-12.83-23.65-21.66-5.04-6.97-9.97-14.02-14.95-21.03-.54-.75-1.81-1.48-.85-2.47.84-.86,1.84.17,2.73.5,19.9,7.21,37.73,18.24,54.71,30.55,26.19,18.99,54.23,35.08,81.06,53.05,11.52,7.72,23.53,14.54,35.39,21.67,1.15.69,2.21,1.51,3.37,2.32Z"/>
        <path class="cls-4" d="M703.49,585.03c6.53,7.46,13.05,14.91,19.58,22.37.21.79,1.29,1.56.51,2.34-.98.99-1.8-.2-2.6-.62-17.25-8.94-34.71-17.41-52.73-24.73-11.48-4.66-23.45-7.51-35.41-10.51-.85-.21-1.74-.07-2.61-.22-.4-.13-.79-.29-1.16-.47-11.72-1.9-23.55-2.56-35.38-2.75-15.1-.23-30.15.82-45.03,3.59-.39.17-.79.31-1.2.41-1.36,0-2.57.81-3.92.76-1.54-.05-2.84-.36-1.68-2.37,1.52-.92,3.17-1.52,4.87-2,2.59-.23,4.85-1.43,7.19-2.4,10.5-3.4,21.35-4.71,32.29-5.54,17.61-1.33,35.05.4,52.47,2.73,4.55.61,9.15.82,13.73,1.28,9.74.97,19.05,3.48,28.21,6.71,4.11,1.45,8.28,2.73,12.43,4.06,4.32,1.39,7.9,3.58,10.45,7.35Z"/>
        <path d="M1293.9,586.99c.12,4.18-.54,8.23-1.66,12.22-1.89,6.74-6.64,10.78-13.6,11.47-3.35.33-6.72.36-10.08.59-2.58.17-4.07-.96-4.32-3.53-1.22-12.31-1.58-24.66-1.17-37.02.12-3.47,1.59-5.47,5.48-5.61,3.37-.12,6.74-.37,10.09-.05,9.03.85,13.05,4.7,14.46,13.75.42,2.7.54,5.45.8,8.18Z"/>
        <path d="M1226.1,567.49c13.01-.39,18.77,6.73,16.29,20.2-.33,1.81-.69,3.88-1.77,5.25-2.16,2.73-1.89,5.09-.21,7.81.97,1.57,1.69,3.34,2.29,5.1.72,2.14,2.26,4.6-.64,6.28-2.7,1.56-6.87.16-8.42-2.58-1.41-2.49-2.87-4.96-4.18-7.5-.62-1.22-1.27-2.16-2.78-1.95-1.82.25-1.53,1.8-1.57,2.92-.08,2.24.26,4.5.1,6.73-.17,2.43-1.56,3.82-4.17,3.81-2.5-.01-4.66-.61-4.78-3.52-.5-12.08-1.86-24.14-1.42-36.26.21-5.77.75-6.11,6.41-6.28,1.62-.05,3.24,0,4.87,0Z"/>
        <path d="M1349.32,584.99c-.02-3.38-.79-9.47-.21-15.59.29-3.1,1.56-4.78,4.93-4.71,3.86.08,7.73-.07,11.6-.23,4.26-.18,7.37,1.79,8.94,5.52,3.07,7.3,3.81,14.72-.69,21.82-.94,1.48-.9,2.66-.16,4.14,1.22,2.44,2.39,4.93,3.34,7.49.76,2.04,1.91,4.4-.79,5.95-2.32,1.33-6.76.2-8.09-2.01-1.6-2.66-3.08-5.4-4.51-8.16-.63-1.21-1.3-2.18-2.81-1.91-1.75.31-1.5,1.81-1.53,2.97-.05,2.12.24,4.24.14,6.35-.12,2.62-1.48,4.09-4.29,4.08-2.73-.01-4.63-.85-4.77-3.95-.3-6.35-.63-12.7-1.09-21.78Z"/>
        <path d="M1327.41,564.08c3.23-.1,4.93,1.3,5.66,3.87,3.48,12.32,6.89,24.66,10.39,36.97.6,2.13.28,3.89-1.86,4.57-2.75.89-5.66,1.45-7.75-1.53-3.05-4.35-8.53-4.29-11.7.12-1.76,2.45-6.95,3.17-9.12,1.27-1.15-1.01-.81-2.34-.54-3.49,2.96-12.46,6.01-24.9,8.98-37.36.82-3.46,3.18-4.49,5.93-4.42Z"/>
        <path d="M1068.73,615.88c-1.97.27-3.48-.73-4.61-2.64-2.25-3.81-8.7-3.71-11.07.12-1.74,2.8-6.69,3.79-9.23,1.88-1.28-.95-1-2.19-.72-3.39,3.01-12.58,6.08-25.14,9.07-37.72.8-3.35,3.08-4.12,6.12-4.2,3.18-.08,4.74,1.51,5.55,4.39,3.3,11.85,6.68,23.69,10.01,35.53,1.18,4.22-.24,5.96-5.11,6.03Z"/>
        <path d="M1108.64,593.07c-.23-4.37-.45-8.73-.7-13.1-.15-2.63-.13-5.23.5-7.82.62-2.55,2-3.75,4.76-3.68,5.24.14,10.5.13,15.74-.05,3.66-.13,4.84,1.74,4.96,5,.12,3.34-1.55,4.73-4.73,4.89-2.61.13-5.21.52-7.83.72-2.47.19-2.5,1.83-2.51,3.72,0,2.17,1.21,2.42,2.92,2.32,1.5-.08,3.01.06,4.49-.08,2.97-.27,3.99,1.32,4.19,3.98.21,2.71-1.16,3.9-3.66,4.17-.12.01-.25.02-.37.03-8.02,1.04-8.33,1.5-7.46,9.78.22,2.1,1.02,3.21,3.28,3.09,2.74-.14,5.51.03,8.24-.25,3.46-.36,4.35,1.47,4.47,4.41.12,2.83-.62,4.41-3.94,4.39-6.12-.03-12.24.25-18.35.56-3.31.17-4.49-1.43-4.48-4.47.03-5.87,0-11.74,0-17.61.15,0,.3,0,.46,0Z"/>
        <path d="M1182.87,591.26c-.21-4.11-.42-8.22-.64-12.33-.13-2.37-.2-4.72.15-7.09.52-3.47,2.02-5.26,5.91-5.02,4.84.3,9.73.16,14.58-.04,3.42-.13,5.08,1.18,5.27,4.65.19,3.5-1.45,5.05-4.78,5.26-2.48.16-4.95.5-7.44.63-2.57.13-2.91,1.62-2.86,3.78.05,2.47,1.57,2.42,3.3,2.35,1.37-.06,2.75.06,4.11-.08,2.94-.29,4.01,1.22,4.21,3.91.2,2.71-1.13,3.9-3.64,4.15-.25.02-.5.06-.74.12-2.23.58-5.4-.7-6.57,1.59-1.34,2.61-.58,5.87-.43,8.85.1,1.87,1.4,2.51,3.12,2.44,2.86-.11,5.74-.16,8.59-.4,3.32-.28,4.02,1.73,4.15,4.39.13,2.67-.3,4.52-3.77,4.5-6.11-.03-12.22.29-18.32.63-3.49.19-4.69-1.51-4.67-4.69.04-5.86.01-11.72.01-17.58.15,0,.3,0,.45,0Z"/>
        <path d="M1095.04,597.01c0,4.12.03,8.24-.02,12.36-.01,1.23-.12,2.5-.42,3.69-.48,1.94-1.77,2.83-3.85,2.8-2.24-.04-3.08-1.37-3.4-3.25-.74-4.33-.43-8.72-.57-13.08-.19-5.61-.45-11.23-.56-16.84-.05-2.57-.81-4.09-3.71-3.74-2.74.33-4.26-.68-4.19-3.72.07-3.05.97-5.09,4.47-5.07,5.12.03,10.24-.02,15.36-.06,2.99-.03,4.69,1.24,4.86,4.37.16,2.98-1.48,4.04-4.12,4.03-2.95,0-3.88,1.63-3.86,4.28.03,4.74,0,9.49,0,14.23Z"/>
        <path d="M1395.36,563.36c2.62,0,5.25-.03,7.87,0,2.86.04,4.31,1.46,4.42,4.4.1,2.73-1.2,3.94-3.78,3.94-2.96,0-4.2,1.52-4.19,4.38.02,8.12,0,16.23-.03,24.35,0,1.75,0,3.51-.24,5.23-.31,2.27-1.6,3.53-4.07,3.45-2.45-.08-3.27-1.68-3.41-3.66-.28-4.24-.39-8.48-.52-12.73-.18-5.62-.34-11.24-.47-16.86-.06-2.57-1.02-4.01-3.86-3.67-2.77.34-4.27-.78-4.17-3.77.1-2.83.88-4.96,4.19-4.99,2.75-.03,5.5,0,8.25,0v-.07Z"/>
        <path d="M1140.27,592.79c0-5.11.04-10.22-.01-15.32-.06-5.9,1.48-9.25,4.63-8.76,4.63.71,3.59,5.09,3.86,8.06.74,8.18,1.07,16.41,1.36,24.62.09,2.53.84,3.69,3.48,3.47,1.48-.12,2.99.25,4.48.19,3.06-.14,3.87,1.6,3.84,4.22-.02,2.7-1.19,4.14-4.04,4.22-3.86.11-7.72.32-11.57.65-3.42.29-4.75-1.33-4.87-4.54-.22-5.6-.54-11.2-.81-16.8-.11,0-.23,0-.34,0Z"/>
        <path class="cls-1" d="M1167.52,590.8c0-6.11-.04-12.21.02-18.32.03-2.63.38-4.81,4.06-4.88,3.7-.08,4.02,2.03,4.15,4.71.59,12.08,1.16,24.17.51,36.27-.1,1.83.03,3.85-1.94,4.96-3.02,1.7-6.04-.4-6.11-4.4-.1-6.11-.03-12.22-.03-18.33-.22,0-.44,0-.66,0Z"/>
        <path class="cls-9" d="M523.42,542.18c.06.37.02.8.21,1.09.8,1.21.88-.15,1.03-.4,3.01-5.18,5.95-10.4,8.94-15.59,6.35-11.01,12.66-22.14,20.81-31.86,15.94-19.01,33.9-36.02,53.37-51.45,10.96-8.68,22.15-17.01,33.55-25.09.96-.68,1.83-1.3,3.06-1-4.51,4.31-10.06,7.21-14.95,11.03-13.27,10.36-26.94,20.2-39.47,31.53-27.45,24.81-49.75,53.48-66.22,86.64-1.31,2.64-3.3,4.93-4.1,7.84-.73,1.25-1.49,1.45-1.7-.2-.15-1.21.57-2.33,1.1-3.43,1.62-2.96,1.98-6.52,4.37-9.11Z"/>
        <path class="cls-19" d="M703.49,585.03c-4.63-5.41-11.39-6.6-17.56-9.13-18.45-7.57-38.03-8.76-57.48-11-15.81-1.82-31.63-2.24-47.46-.95-9.33.76-18.58,2.18-27.5,5.23-1.01.68-2.02.74-3.03,0,8.42-3.75,17.47-4.79,26.46-6.02,20.48-2.81,40.81-.86,61.16,1.73,8.89,1.13,17.88,1.43,26.67,3.46,11.45,2.65,22.5,6.56,33.41,10.82,2.47.96,4.56,2.99,5.34,5.85Z"/>
        <path class="cls-19" d="M648.02,578.26c-6.22-.65-12.09-2.92-18.23-3.9-18.32-2.93-36.73-3.42-55.24-2.39-16.04.89-31.71,3.47-46.91,8.71-.73.25-1.56.62-1.96-.24-.46-.99.59-1.19,1.19-1.52,3.71-2.03,7.43-4.05,11.48-5.35.12.13.24.26.36.38-.06,1.2-.88,1.68-1.75,1.95,3.2-1.95,7.21-.44,10.61-2.06h-.01c10.35-2.02,20.78-3.34,31.34-3.39,2.77-.01,5.36-.99,8.15-.83,13.12.75,26.32.5,39.31,3.01,1.19.23,2.51-.4,3.61.5h0c5.45.69,10.73,2.17,16,3.64.71.2,2.19-.09,2.08,1.49Z"/>
        <path class="cls-6" d="M648.02,578.26c-4.9-2.59-10.43-2.95-15.66-4.38-.82-.22-1.77-.02-2.42-.76,5.73-.23,11.07,1.71,16.41,3.26,23.6,6.85,45.75,17.18,67.48,28.49,2.65,1.38,5.3,2.79,7.98,4.1,2.48,1.21.7-1.15,1.25-1.57,1.69,1.24,3.19,2.62,3.71,5.59-5.87-3.09-11.14-6-16.53-8.67-20.19-10-40.4-19.98-62.23-26.06Z"/>
        <path class="cls-3" d="M1298.12,572.32c.34-2.87,2.23-5.48,4.42-7.84.81-.88,2.04-.73,3.04.07,1.25,1,2.11,2.21,1.38,3.85-.95,2.14-2.02,4.23-3.08,6.32-.72,1.42-1.78,2.58-3.51,1.95-1.69-.61-2.35-2.07-2.25-4.35Z"/>
        <path class="cls-9" d="M550.44,491.91c-.61,4.13-3.66,7-5.67,10.33-7.16,11.83-13.28,24.17-19.14,36.66-.56,1.19-.8,2.67-2.21,3.32,1.86-7.04,5.68-13.21,8.81-19.67,4.73-9.75,10.21-19.09,16.04-28.22.59-.92.92-2.09,2.18-2.41Z"/>
        <path class="cls-2" d="M519.05,551.29c-.18,1.04-.41,2.08-.53,3.12-.13,1.19.68.48,1.13.51-.67,4.13-3.02,7.43-5.48,10.7.84-5.05,2.17-9.92,4.88-14.33Z"/>
        <path class="cls-19" d="M546.63,571.39c-1.45.57-2.89,1.13-4.34,1.7-1.14.54-2.02,2.03-3.58.93-.12-.15-.24-.29-.36-.44,3.14-1.68,6.34-3.2,9.96-3.49.23,1.46-1.14.85-1.69,1.31Z"/>
        <path class="cls-6" d="M546.63,571.39c.56-.44,1.13-.87,1.69-1.31.71-.3,1.43-.6,2.14-.9,1.01,0,2.02,0,3.03,0-2.06,1.44-4.33,2.22-6.86,2.21Z"/>
        <path class="cls-10" d="M920.26,713.28c0-.5-.06-1,0-1.49.14-1.04.51-2.1,1.75-2.05,1.69.07,1.45,1.53,1.35,2.55-.62,6.07-1.42,12.13-1.99,18.2-1.6,17.26-1.64,34.38,4.98,50.84,2.77,6.87,7.01,12.59,13.05,16.97.9.65,2.71,1.25,1.81,2.75-.85,1.42-2.53.78-3.75.22-7.77-3.55-13.5-9.15-17.2-16.93-7.96-16.75-7.69-34.22-5.08-52.01.76-5.19,2.11-10.25,2.91-15.42.23-1.47.53-2.98,2.18-3.63,1.64,2.16.28,4.34-.12,6.41-2.33,11.9-4.05,23.83-3.84,36.02.15,8.64,2.02,16.82,5.08,24.79,2.42,6.32,6.41,11.53,10.8,14.96-4.74-4.53-7.78-11.37-10.09-18.52-4.62-14.28-4.62-28.99-3.6-43.75.41-5.97,1.14-11.9,2.67-17.7.26-1-.04-1.7-.9-2.2Z"/>
        <path class="cls-13" d="M911.88,617.17c-.11-5.72.72-11.17,4.04-16.02.9-1.32,1.94-2.48,3.67-1.73,1.78.78,1.39,2.3,1.06,3.86-1.41,6.64-1.18,13.31-.71,20.07.53,7.57.18,15.2.19,22.81,0,.83.15,1.99-1,2.09-1.07.09-1.28-1.05-1.54-1.85-3.03-9.52-5.35-19.19-5.71-29.23Z"/>
        <path class="cls-15" d="M1165.96,483.1c-2.4-7.32,1.63-12.99,8.83-17.37,2.75-1.67,5.08-4.02,7.62-6.03.57-.45,1.18-1.1,1.98-.78.91.36.54,1.29.56,1.97.18,5.99.29,11.98.52,17.97.06,1.55-.52,2.61-1.62,3.56-5.19,4.49-10.36,9-15.55,13.49-.51.44-.9,1.42-1.8.83-.69-.46-.53-1.34-.53-2.06-.02-3.37,0-6.74,0-11.57Z"/>
        <path class="cls-16" d="M1089.67,460.64c6.17,5.17,11.39,9.55,16.62,13.92,1.05.88,2.11,1.75,3.2,2.57,4.2,3.13,4.44,8.93.51,12.38-5.62,4.94-11.21,9.91-16.85,14.82-.99.87-1.85,2.02-3.48,2.23v-45.93Z"/>
        <path class="cls-8" d="M901.19,510.12c0-15.14-.01-29.49.01-43.85,0-2,.81-2.07,2.24-.88,6.42,5.36,12.91,10.63,19.31,16.01,1.72,1.45,1.99,7.82.25,9.4-7.09,6.42-14.31,12.69-21.82,19.32Z"/>
        <path class="cls-6" d="M629.96,573.12c-13.14-1.62-26.32-2.95-39.56-2.83-12.98.12-25.95.81-38.74,3.32-1.33.26-2.73.16-4.09.23,4.71-2.22,9.92-2.38,14.88-2.89,22.01-2.25,44.02-2.18,65.93,1.34.56.09,1.06.54,1.58.82Z"/>
        <path class="cls-6" d="M538.71,574.01c1.19-.31,2.39-.62,3.58-.93-.51,1.38.29,1.48,1.29,1.27,1.32-.27,2.58-.92,3.99-.52-4.29,1.9-8.99,2.12-13.95,3.8,1.48-2.34,3.64-2.46,5.09-3.63Z"/>
        <path class="cls-12" d="M1273.64,588.45c0-3.48-.05-6.97.02-10.45.06-3,1.85-3.52,4.28-2.61,3.66,1.36,5.38,4.36,5.9,7.98.48,3.33.29,6.69-.44,10.03-.74,3.36-2.67,5.43-5.88,6.6-2.35.86-3.54.54-3.6-2.22-.07-3.11-.32-6.22-.49-9.33.07,0,.14,0,.21,0Z"/>
        <path class="cls-15" d="M1224.65,584.2c0-1.5-.04-2.99,0-4.49.1-3.24,2.49-4.83,5.27-3.28,3.55,1.97,3.24,5.57,3.26,8.94.02,2.78-1.11,4.76-3.85,5.73-3.4,1.2-4.56.44-4.61-3.15-.02-1.25,0-2.49,0-3.74-.02,0-.05,0-.07,0Z"/>
        <path class="cls-15" d="M1358.89,581.07c0-1.37-.03-2.75,0-4.12.09-3.36,2.75-4.98,5.54-3.19,3.38,2.16,2.98,5.74,2.97,9.11,0,2.66-1.23,4.45-3.78,5.39-3.41,1.26-4.61.51-4.67-3.07-.02-1.37,0-2.74,0-4.12h-.07Z"/>
        <path class="cls-17" d="M1327.9,584.19c.86,2.9,1.38,4.77,1.97,6.61.28.89.52,1.86-.47,2.25-.74.29-1.74.22-2.54,0-1.2-.33-.78-1.26-.55-2.14.5-1.86.89-3.75,1.59-6.72Z"/>
        <path class="cls-18" d="M1058.76,590.85c.62,2.07,1.18,3.94,1.73,5.82.26.88.34,1.8-.6,2.28-.8.41-1.71.21-2.51-.15-1.15-.51-.73-1.46-.44-2.23.68-1.79.36-3.89,1.82-5.72Z"/>
        <path class="cls-14" d="M920.26,713.28c1.21-.76,2.35-1.61,2,1-.91,6.79-2.13,13.54-2.54,20.41-.92,15.67-.66,31.16,5.15,46.09,2.77,7.13,6.85,13.24,12.71,18.28-3.27-.19-5.56-2.18-7.86-4.07-5.18-4.26-8.22-9.94-10.49-16.11-5.27-14.35-5.11-29.1-3.14-43.96.97-7.29,2.54-14.47,4.16-21.64h0Z"/>
        <path class="cls-11" d="M918.73,642.75c-4.15-11.96-7.34-23.91-3.95-36.52.47-1.73,1.4-3.18,2.42-4.61.42-.6.85-1.35,1.77-.93.68.31.73,1.02.58,1.62-2.93,11.66.02,23.38-.38,35.06-.06,1.8-.29,3.59-.44,5.38Z"/>
      </g>
    </g>
  </g>
</svg>